<svg width="80" height="80" viewBox="0 0 80 80" fill="none" xmlns="http://www.w3.org/2000/svg">
<path d="M65 16.25H57.0062L53.125 10.4188C52.782 9.90461 52.3172 9.48323 51.772 9.19209C51.2268 8.90095 50.6181 8.74909 50 8.75H30C29.3819 8.74909 28.7732 8.90095 28.228 9.19209C27.6828 9.48323 27.218 9.90461 26.875 10.4188L22.9906 16.25H15C12.6794 16.25 10.4538 17.1719 8.81282 18.8128C7.17187 20.4538 6.25 22.6794 6.25 25V60C6.25 62.3206 7.17187 64.5462 8.81282 66.1872C10.4538 67.8281 12.6794 68.75 15 68.75H65C66.1491 68.75 67.2869 68.5237 68.3485 68.084C69.4101 67.6442 70.3747 66.9997 71.1872 66.1872C71.9997 65.3747 72.6442 64.4101 73.0839 63.3485C73.5237 62.2869 73.75 61.1491 73.75 60V25C73.75 23.8509 73.5237 22.7131 73.0839 21.6515C72.6442 20.5899 71.9997 19.6253 71.1872 18.8128C70.3747 18.0003 69.4101 17.3558 68.3485 16.9161C67.2869 16.4763 66.1491 16.25 65 16.25ZM66.25 60C66.25 60.3315 66.1183 60.6495 65.8839 60.8839C65.6495 61.1183 65.3315 61.25 65 61.25H15C14.6685 61.25 14.3505 61.1183 14.1161 60.8839C13.8817 60.6495 13.75 60.3315 13.75 60V25C13.75 24.6685 13.8817 24.3505 14.1161 24.1161C14.3505 23.8817 14.6685 23.75 15 23.75H25C25.6181 23.7509 26.2268 23.5991 26.772 23.3079C27.3172 23.0168 27.782 22.5954 28.125 22.0813L32.0062 16.25H47.9906L51.875 22.0813C52.218 22.5954 52.6828 23.0168 53.228 23.3079C53.7732 23.5991 54.3819 23.7509 55 23.75H65C65.3315 23.75 65.6495 23.8817 65.8839 24.1161C66.1183 24.3505 66.25 24.6685 66.25 25V60ZM40 26.25C37.0333 26.25 34.1332 27.1297 31.6664 28.778C29.1997 30.4262 27.2771 32.7689 26.1418 35.5098C25.0065 38.2506 24.7094 41.2666 25.2882 44.1764C25.867 47.0861 27.2956 49.7588 29.3934 51.8566C31.4912 53.9544 34.1639 55.383 37.0736 55.9618C39.9834 56.5406 42.9994 56.2435 45.7402 55.1082C48.4811 53.9729 50.8238 52.0503 52.472 49.5836C54.1203 47.1168 55 44.2167 55 41.25C54.9959 37.273 53.4142 33.4601 50.602 30.648C47.7899 27.8358 43.977 26.2541 40 26.25ZM40 48.75C38.5166 48.75 37.0666 48.3101 35.8332 47.486C34.5999 46.6619 33.6386 45.4906 33.0709 44.1201C32.5032 42.7497 32.3547 41.2417 32.6441 39.7868C32.9335 38.332 33.6478 36.9956 34.6967 35.9467C35.7456 34.8978 37.082 34.1835 38.5368 33.8941C39.9917 33.6047 41.4997 33.7533 42.8701 34.3209C44.2406 34.8886 45.4119 35.8499 46.236 37.0832C47.0601 38.3166 47.5 39.7666 47.5 41.25C47.5 43.2391 46.7098 45.1468 45.3033 46.5533C43.8968 47.9598 41.9891 48.75 40 48.75Z" fill="#C0C0C0"/>
</svg>
