<svg width="161" height="30" viewBox="0 0 161 30" fill="none" xmlns="http://www.w3.org/2000/svg">
<g clip-path="url(#clip0_91_122)">
<path d="M14.9739 3.63262V21.7554C14.9739 22.6331 14.7971 23.3992 14.4385 24.0436C14.085 24.6879 13.6204 25.2308 13.0447 25.6722C12.469 26.1136 11.8225 26.4434 11.0953 26.6615C10.3681 26.8797 9.64086 26.9913 8.89848 26.9913C8.24195 26.9913 7.57028 26.8899 6.8885 26.6818C6.20673 26.4738 5.59565 26.1542 5.06538 25.7128C4.53006 25.2714 4.09575 24.7234 3.75234 24.0639C3.40892 23.4043 3.23722 22.6382 3.23722 21.7554V2.05981H1.56055C0.696971 2.05981 -0.00500488 2.76504 -0.00500488 3.63262V21.2633C-0.00500488 22.694 0.262655 23.9472 0.792925 25.0329C1.32824 26.1187 2.01507 27.0319 2.8635 27.7727C3.71193 28.5134 4.66642 29.0715 5.73706 29.4419C6.80265 29.8122 7.85814 29.9999 8.89343 29.9999C10.0146 29.9999 11.1307 29.8122 12.2367 29.4419C13.3426 29.0715 14.3426 28.5134 15.2314 27.7727C16.1202 27.0319 16.8374 26.1187 17.3828 25.0329C17.9282 23.9472 18.2009 22.6889 18.2009 21.2633V2.05981H16.5243C15.6607 2.05981 14.9587 2.76504 14.9587 3.63262H14.9739Z" fill="black"/>
<path d="M27.0185 9.24907C26.266 9.75643 25.6297 10.4769 25.1095 11.4104H25.0287V8.85333H23.6803C22.8167 8.85333 22.1147 9.55856 22.1147 10.4261V29.3353H23.4631C24.3267 29.3353 25.0287 28.6301 25.0287 27.7625V16.1897C25.0287 15.5606 25.1499 14.9619 25.3974 14.3987C25.6448 13.8356 25.9781 13.3434 26.4024 12.9173C26.8266 12.4911 27.3366 12.1562 27.9427 11.9076C28.5436 11.659 29.2002 11.5373 29.9122 11.5373C30.1294 11.5373 30.3365 11.5525 30.5284 11.5778C30.7203 11.6032 31.0081 11.6742 31.3919 11.7859V8.85841C30.9273 8.6098 30.4223 8.48804 29.8718 8.48804C28.7254 8.48804 27.771 8.74172 27.0235 9.24907H27.0185Z" fill="black"/>
<path d="M75.3488 8.4881C74.7731 8.4881 74.1873 8.54899 73.5863 8.67582C72.9853 8.79759 72.4045 8.98531 71.844 9.23392C71.2834 9.48252 70.7632 9.79201 70.2835 10.1624C69.8037 10.5328 69.3997 10.964 69.0714 11.4612H68.9906V8.86355H67.6422C66.7786 8.86355 66.0767 9.56877 66.0767 10.4364V26.9051C66.0767 26.9051 66.0363 26.9102 66.0161 26.9102C65.6878 26.9102 65.3999 26.7529 65.1525 26.4384C64.905 26.1238 64.7838 25.7991 64.7838 25.4693V14.9214C64.7838 13.8762 64.5667 12.9579 64.1273 12.1614C63.6879 11.3648 63.1173 10.69 62.4052 10.1421C61.6931 9.59414 60.88 9.17811 59.9659 8.90413C59.0519 8.63016 58.1125 8.49318 57.158 8.49318C56.254 8.49318 55.3602 8.63524 54.4713 8.92443C53.5825 9.21362 52.7745 9.6398 52.0523 10.203C51.3251 10.7661 50.7392 11.446 50.2898 12.2425C49.9918 12.7651 49.805 13.3384 49.704 13.9473C49.3959 13.1507 49.0171 12.41 48.5475 11.7504C47.8505 10.7611 46.9819 9.96451 45.9416 9.36076C44.9012 8.757 43.669 8.45259 42.2499 8.45259C41.0479 8.45259 39.9571 8.74178 38.9875 9.32017C38.9774 9.32524 38.9673 9.33031 38.9572 9.33539C37.9673 9.929 36.7098 9.24406 36.7098 8.08222V1.27856H35.4473C34.5837 1.27856 33.8817 1.98379 33.8817 2.85137V29.3405H36.7098C36.7098 28.4881 37.6643 28.001 38.3612 28.4932C38.5582 28.6352 38.7703 28.7671 38.9875 28.8889C39.9571 29.4369 41.0429 29.7108 42.2499 29.7108C43.669 29.7108 44.9012 29.4166 45.9416 28.823C46.9819 28.2344 47.8505 27.448 48.5475 26.4739C48.7394 26.205 48.9161 25.9259 49.0777 25.6368C49.1484 25.8549 49.2242 26.0629 49.3252 26.271C49.6535 26.9457 50.0979 27.5444 50.6584 28.0619C51.219 28.5845 51.8553 28.9904 52.5674 29.2796C53.2795 29.5688 54.032 29.7108 54.8248 29.7108C56.1379 29.7108 57.456 29.4419 58.7842 28.9092C60.1124 28.3714 61.2386 27.5292 62.1678 26.3724C62.1678 28.5997 63.0415 29.7108 64.7939 29.7108C65.3393 29.7108 65.7787 29.6702 66.107 29.5891C66.107 29.5891 66.112 29.5891 66.1171 29.5891C66.2989 29.5434 66.4655 29.4572 66.6069 29.3455H67.4352C68.2987 29.3455 69.0007 28.6403 69.0007 27.7727V16.0223C69.0007 15.1548 69.2987 14.3176 69.8441 13.6428C70.2683 13.1203 70.7582 12.6687 71.3188 12.2831C71.8793 11.8975 72.4854 11.5881 73.1419 11.3547C73.7984 11.1213 74.4246 11.0046 75.0307 11.0046C75.3842 11.0046 75.768 11.0959 76.177 11.2735C76.5861 11.4511 76.9548 11.6946 77.283 11.9939C77.6113 12.2984 77.884 12.6687 78.1012 13.105C78.3183 13.5464 78.4294 14.0132 78.4294 14.5054V29.3405H79.7778C80.6414 29.3405 81.3434 28.6352 81.3434 27.7677V13.7646C81.3434 12.1969 80.8081 10.9285 79.7425 9.95436C78.6769 8.98024 77.2123 8.49318 75.3539 8.49318L75.3488 8.4881ZM47.3354 22.273C47.088 23.2471 46.7344 24.1045 46.2698 24.8504C45.8052 25.5911 45.2396 26.1746 44.5679 26.6007C43.8962 27.0269 43.1236 27.24 42.2499 27.24C41.3762 27.24 40.6035 27.0269 39.9318 26.6007C39.2602 26.1746 38.6945 25.5911 38.2299 24.8504C37.7653 24.1096 37.4118 23.2522 37.1643 22.273C36.9169 21.2989 36.7957 20.2588 36.7957 19.1629C36.7957 18.067 36.9169 17.0218 37.1643 16.0325C37.4118 15.0431 37.7653 14.1705 38.2299 13.4145C38.6945 12.6586 39.2602 12.0548 39.9318 11.6033C40.6035 11.1517 41.3762 10.9234 42.2499 10.9234C43.1236 10.9234 43.8962 11.1517 44.5679 11.6033C45.2396 12.0548 45.8052 12.6636 46.2698 13.4145C46.7344 14.1705 47.088 15.0431 47.3354 16.0325C47.5829 17.0218 47.7041 18.067 47.7041 19.1629C47.7041 20.2588 47.5829 21.2989 47.3354 22.273ZM61.8749 22.2578C61.8749 23.2775 61.5264 24.2821 60.8447 25.0381L60.8295 25.0533C60.3801 25.5454 59.8649 25.9615 59.2892 26.2912C58.7135 26.621 58.1125 26.8696 57.4863 27.032C56.855 27.1943 56.2692 27.2806 55.7238 27.2806C54.6834 27.2806 53.7795 26.9914 53.0169 26.413C52.2493 25.8346 51.8705 25.0279 51.8705 23.9828C51.8705 23.0188 52.2543 22.2375 53.0169 21.6337C53.7845 21.03 54.6986 20.5277 55.7642 20.1319C56.8298 19.7362 57.9307 19.3912 59.067 19.102C59.0771 19.102 59.0872 19.0969 59.1024 19.0919C60.5114 18.7316 61.88 19.7869 61.88 21.2481V22.2578H61.8749ZM60.9103 15.9868C60.2689 16.2608 59.4609 16.5297 58.4913 16.7885C57.5216 17.0523 56.4763 17.3364 55.3551 17.656C54.234 17.9706 53.1886 18.3968 52.219 18.9346C51.6079 19.2694 51.0675 19.6702 50.5877 20.1167C50.6079 19.8022 50.618 19.4825 50.618 19.1629C50.618 17.788 50.4463 16.4587 50.1029 15.1649C50.0827 15.0787 50.0524 15.0026 50.0272 14.9163H51.2039C51.8856 14.9163 52.4765 14.4698 52.6937 13.8204C52.7492 13.6428 52.825 13.4754 52.9108 13.308C53.1684 12.8159 53.5118 12.3897 53.936 12.0295C54.3602 11.6743 54.8501 11.3902 55.4107 11.1822C55.9712 10.9741 56.552 10.8727 57.153 10.8727C57.9711 10.8727 58.6781 10.9843 59.264 11.2025C59.8498 11.4206 60.3346 11.72 60.7184 12.0903C61.1022 12.4607 61.3901 12.892 61.582 13.3892C61.7739 13.8813 61.8699 14.3937 61.8699 14.9163C61.8699 15.3577 61.5466 15.7129 60.9053 15.9868H60.9103Z" fill="black"/>
<path d="M109.645 16.0528C108.877 15.3527 108.003 14.7692 107.019 14.3024C106.034 13.8357 105.009 13.4805 103.943 13.2319C103.312 13.0696 102.65 12.8565 101.953 12.5926C101.256 12.3339 100.62 11.9838 100.044 11.5424C99.4686 11.101 98.9989 10.5835 98.6302 9.97468C98.2616 9.37092 98.0747 8.65555 98.0747 7.83363C98.0747 7.19943 98.2161 6.62612 98.504 6.10354C98.7918 5.58097 99.1656 5.13449 99.6302 4.76412C100.095 4.39375 100.62 4.10963 101.211 3.91684C101.797 3.72404 102.408 3.62764 103.034 3.62764C103.716 3.62764 104.367 3.7697 104.983 4.0589C105.599 4.34809 106.145 4.73875 106.625 5.23089C107.104 5.72303 107.488 6.31663 107.771 7.00156C108.059 7.6865 108.2 8.43231 108.2 9.22886H110.887C111.195 9.22886 111.443 8.97011 111.422 8.66062C111.377 8.0112 111.251 7.31105 111.054 6.55002C110.791 5.56067 110.352 4.63221 109.72 3.7697C109.089 2.90212 108.236 2.1766 107.155 1.58807C106.074 0.999536 104.701 0.700195 103.034 0.700195C101.994 0.700195 100.984 0.87777 99.9988 1.23799C99.014 1.59314 98.1404 2.09543 97.3727 2.73977C96.6051 3.38411 95.994 4.15022 95.5294 5.02795C95.0648 5.90567 94.8325 6.85443 94.8325 7.86914C94.8325 8.99548 95.0496 10.0203 95.489 10.9387C95.9284 11.857 96.494 12.6535 97.1909 13.3283C97.8879 14.0031 98.6858 14.5663 99.5898 15.0178C100.494 15.4693 101.423 15.8093 102.377 16.0274C103.059 16.1949 103.786 16.413 104.549 16.687C105.317 16.961 106.019 17.3263 106.66 17.7778C107.301 18.2294 107.837 18.7824 108.261 19.4267C108.685 20.0711 108.897 20.8372 108.897 21.7149C108.897 22.5115 108.746 23.1964 108.448 23.7748C108.145 24.3532 107.746 24.8402 107.236 25.236C106.731 25.6368 106.135 25.931 105.453 26.1238C104.771 26.3166 104.059 26.413 103.322 26.413C102.448 26.413 101.645 26.2253 100.923 25.8549C100.196 25.4846 99.5746 24.9975 99.0544 24.3938C98.5343 23.79 98.1404 23.0898 97.8626 22.2933C97.5899 21.4967 97.4535 20.685 97.4535 19.8631H95.888C94.9082 19.8631 94.1558 20.756 94.3477 21.72C94.4739 22.3593 94.6658 22.9782 94.9284 23.5718C95.4335 24.7235 96.1102 25.7281 96.9586 26.5805C97.8071 27.4328 98.7817 28.1076 99.8928 28.5997C100.999 29.0919 102.14 29.3405 103.317 29.3405C104.574 29.3405 105.741 29.168 106.822 28.823C107.902 28.478 108.837 27.9858 109.63 27.3415C110.422 26.6971 111.039 25.9006 111.478 24.9518C111.917 24.0031 112.134 22.9123 112.134 21.6743C112.134 20.4364 111.907 19.4369 111.458 18.5033C111.008 17.5698 110.397 16.753 109.635 16.0528H109.645Z" fill="black"/>
<path d="M159.732 0C158.869 0 158.167 0.705226 158.167 1.57281V6.80365C158.167 7.9655 156.909 8.65043 155.92 8.05682C155.909 8.05175 155.899 8.04668 155.889 8.0416C154.92 7.46322 153.834 7.17402 152.627 7.17402C151.203 7.17402 149.975 7.47844 148.935 8.08219C147.895 8.68595 147.026 9.4825 146.329 10.4718C145.809 11.2075 145.39 12.0294 145.067 12.9325C144.713 12.0294 144.264 11.2075 143.713 10.4718C142.976 9.4825 142.057 8.68595 140.966 8.08219C139.87 7.47844 138.613 7.17402 137.193 7.17402C135.774 7.17402 134.512 7.47844 133.421 8.08219C132.325 8.68595 131.411 9.4825 130.674 10.4718C130.361 10.8879 130.088 11.3394 129.84 11.8113C129.593 11.3394 129.32 10.8879 129.007 10.4718C128.27 9.4825 127.351 8.68595 126.26 8.08219C125.164 7.47844 123.906 7.17402 122.487 7.17402C121.068 7.17402 119.806 7.47844 118.715 8.08219C117.619 8.68595 116.705 9.4825 115.968 10.4718C115.23 11.4612 114.67 12.6027 114.286 13.8914C113.902 15.1852 113.71 16.5145 113.71 17.8894C113.71 19.2643 113.902 20.5835 114.286 21.8468C114.67 23.1101 115.23 24.2314 115.968 25.2055C116.705 26.1796 117.624 26.966 118.715 27.5545C119.811 28.1431 121.068 28.4424 122.487 28.4424C123.553 28.4424 124.538 28.2699 125.442 27.9249C126.346 27.5799 127.144 27.1081 127.841 26.5043C128.537 25.9006 129.133 25.1852 129.623 24.3633C129.709 24.2212 129.785 24.0741 129.861 23.932C130.103 24.3785 130.371 24.8097 130.674 25.2106C131.411 26.1847 132.33 26.9711 133.421 27.5596C134.512 28.1481 135.774 28.4475 137.193 28.4475C138.259 28.4475 139.244 28.275 140.148 27.93C141.052 27.585 141.85 27.1131 142.547 26.5094C143.244 25.9056 143.84 25.1903 144.329 24.3683C144.622 23.8813 144.87 23.3688 145.082 22.8311C145.4 23.7037 145.814 24.4952 146.329 25.2106C147.026 26.1847 147.895 26.9711 148.935 27.5596C149.975 28.1481 151.203 28.4475 152.627 28.4475C153.829 28.4475 154.915 28.1735 155.889 27.6256C156.106 27.5038 156.319 27.3668 156.515 27.2298C157.212 26.7377 158.167 27.2298 158.167 28.0771H160.465C160.758 28.0771 161 27.8387 161 27.5393V0H159.732ZM117.503 13.4754C117.846 12.7093 118.26 12.0396 118.755 11.4764C119.245 10.9132 119.806 10.4668 120.437 10.137C121.068 9.80721 121.75 9.64485 122.487 9.64485C123.225 9.64485 123.906 9.80721 124.538 10.137C125.169 10.4668 125.719 10.9132 126.199 11.4764C126.679 12.0396 127.083 12.7042 127.411 13.4754C127.411 13.4855 127.416 13.4906 127.421 13.5008C127.916 14.6626 127.038 15.9513 125.78 15.9513H116.791C116.927 15.0736 117.164 14.2466 117.508 13.4805L117.503 13.4754ZM128.184 21.6743C127.972 21.6743 127.775 21.8011 127.694 21.999C127.234 23.1405 126.578 24.069 125.724 24.7844C124.795 25.5657 123.715 25.9564 122.482 25.9564C121.634 25.9564 120.861 25.7585 120.164 25.3577C119.467 24.962 118.866 24.4242 118.361 23.7494C117.856 23.0746 117.452 22.278 117.149 21.3597C117.074 21.1263 117.003 20.8879 116.942 20.6494C116.659 19.518 117.493 18.417 118.654 18.417H128.426C128.467 19.5383 128.633 20.6241 128.936 21.6743H128.174H128.184ZM132.214 13.4754C132.557 12.7093 132.971 12.0396 133.466 11.4764C133.956 10.9132 134.517 10.4668 135.148 10.137C135.779 9.80721 136.461 9.64485 137.199 9.64485C137.936 9.64485 138.623 9.80721 139.249 10.137C139.88 10.4668 140.431 10.9132 140.91 11.4764C141.39 12.0396 141.794 12.7042 142.122 13.4754C142.122 13.4855 142.127 13.4906 142.133 13.5008C142.627 14.6626 141.749 15.9513 140.491 15.9513H131.502C131.638 15.0736 131.876 14.2466 132.219 13.4805L132.214 13.4754ZM142.895 21.6743C142.683 21.6743 142.486 21.8011 142.405 21.999C141.946 23.1405 141.289 24.069 140.436 24.7844C139.506 25.5657 138.426 25.9564 137.193 25.9564C136.345 25.9564 135.572 25.7585 134.875 25.3577C134.178 24.962 133.578 24.4242 133.073 23.7494C132.567 23.0746 132.163 22.278 131.86 21.3597C131.785 21.1263 131.714 20.8879 131.653 20.6494C131.371 19.518 132.204 18.417 133.365 18.417H144.269C144.304 19.5383 144.456 20.6241 144.728 21.6743H142.885H142.895ZM157.717 20.9944C157.47 21.9685 157.116 22.826 156.652 23.5718C156.187 24.3125 155.622 24.896 154.95 25.3222C154.278 25.7484 153.506 25.9614 152.632 25.9614C151.758 25.9614 150.986 25.7484 150.314 25.3222C149.642 24.896 149.077 24.3125 148.612 23.5718C148.147 22.8311 147.794 21.9736 147.546 20.9944C147.299 20.0203 147.178 18.9802 147.178 17.8843C147.178 16.7884 147.299 15.7433 147.546 14.7539C147.794 13.7646 148.147 12.8919 148.612 12.136C149.077 11.38 149.642 10.7763 150.314 10.3247C150.986 9.87316 151.758 9.64485 152.632 9.64485C153.506 9.64485 154.278 9.87316 154.95 10.3247C155.622 10.7763 156.187 11.3851 156.652 12.136C157.116 12.8919 157.47 13.7646 157.717 14.7539C157.965 15.7433 158.086 16.7884 158.086 17.8843C158.086 18.9802 157.965 20.0203 157.717 20.9944Z" fill="black"/>
</g>
<defs>
<clipPath id="clip0_91_122">
<rect width="161" height="30" fill="white"/>
</clipPath>
</defs>
</svg>
