<svg width="75" height="57" viewBox="0 0 75 57" fill="none" xmlns="http://www.w3.org/2000/svg">
<g clip-path="url(#clip0_196_69)">
<path d="M13.9104 3.10482V19.6947C13.9104 20.4982 13.7462 21.1995 13.4132 21.7894C13.0848 22.3792 12.6532 22.8762 12.1184 23.2803C11.5836 23.6843 10.9831 23.9862 10.3076 24.1859C9.63206 24.3856 8.95652 24.4878 8.26692 24.4878C7.65706 24.4878 7.03313 24.3949 6.39982 24.2045C5.76651 24.0141 5.19887 23.7215 4.7063 23.3174C4.20903 22.9133 3.80559 22.4117 3.48659 21.808C3.16759 21.2042 3.00809 20.5029 3.00809 19.6947V1.66504H1.45061C0.648414 1.66504 -0.00366211 2.31062 -0.00366211 3.10482V19.2442C-0.00366211 20.554 0.244971 21.7011 0.737547 22.6951C1.23481 23.689 1.87282 24.525 2.66094 25.2031C3.44906 25.8811 4.33569 26.392 5.33023 26.7311C6.32007 27.0701 7.30053 27.242 8.26223 27.242C9.30367 27.242 10.3404 27.0701 11.3678 26.7311C12.3952 26.392 13.324 25.8811 14.1497 25.2031C14.9753 24.525 15.6415 23.689 16.1481 22.6951C16.6548 21.7011 16.9081 20.5493 16.9081 19.2442V1.66504H15.3506C14.5484 1.66504 13.8964 2.31062 13.8964 3.10482H13.9104Z" fill="black"/>
<path d="M24.8597 8.20483C24.2037 8.66723 23.6489 9.32384 23.1954 10.1747H23.125V7.84416H21.9494C21.1965 7.84416 20.5845 8.48689 20.5845 9.2776V26.5112H21.7601C22.513 26.5112 23.125 25.8685 23.125 25.0778V14.5305C23.125 13.9571 23.2307 13.4114 23.4464 12.8982C23.6621 12.3849 23.9527 11.9364 24.3226 11.548C24.6924 11.1596 25.1371 10.8544 25.6655 10.6278C26.1894 10.4012 26.7618 10.2903 27.3826 10.2903C27.572 10.2903 27.7525 10.3041 27.9198 10.3272C28.0871 10.3504 28.3381 10.4151 28.6727 10.5168V7.84878C28.2676 7.62221 27.8273 7.51123 27.3474 7.51123C26.3479 7.51123 25.5158 7.74243 24.8641 8.20483H24.8597Z" fill="black"/>
<path d="M69.4241 7.60514C68.8889 7.60514 68.3444 7.66147 67.7858 7.77883C67.2271 7.8915 66.6873 8.06519 66.1662 8.29522C65.6451 8.52525 65.1616 8.81161 64.7156 9.15431C64.2697 9.497 63.8941 9.89603 63.589 10.3561H63.5139V7.95253H62.2605C61.4578 7.95253 60.8052 8.60505 60.8052 9.40781V24.646C60.8052 24.646 60.7677 24.6507 60.7489 24.6507C60.4438 24.6507 60.1762 24.5052 59.9462 24.2141C59.7161 23.923 59.6035 23.6226 59.6035 23.3175V13.5577C59.6035 12.5906 59.4016 11.7409 58.9932 11.0039C58.5848 10.2669 58.0543 9.64253 57.3924 9.13553C56.7305 8.62853 55.9747 8.24358 55.1251 7.99008C54.2754 7.73658 53.4022 7.60983 52.515 7.60983C51.6747 7.60983 50.8438 7.74128 50.0176 8.00886C49.1914 8.27644 48.4403 8.67078 47.769 9.19186C47.093 9.71294 46.5485 10.342 46.1307 11.079C45.8537 11.5626 45.68 12.093 45.5861 12.6564C45.2998 11.9193 44.9477 11.2339 44.5111 10.6237C43.8633 9.70825 43.0558 8.97122 42.0888 8.41258C41.1218 7.85394 39.9763 7.57228 38.6572 7.57228C37.54 7.57228 36.526 7.83986 35.6247 8.37503C35.6153 8.37972 35.6059 8.38442 35.5965 8.38911C34.6764 8.93836 33.5075 8.30461 33.5075 7.22958V0.934326H32.3339C31.5312 0.934326 30.8787 1.58685 30.8787 2.38961V26.8993H33.5075C33.5075 26.1107 34.3947 25.66 35.0426 26.1153C35.2256 26.2468 35.4228 26.3688 35.6247 26.4815C36.526 26.9885 37.5353 27.242 38.6572 27.242C39.9763 27.242 41.1218 26.9697 42.0888 26.4205C43.0558 25.8759 43.8633 25.1483 44.5111 24.247C44.6895 23.9982 44.8538 23.74 45.004 23.4724C45.0697 23.6742 45.1401 23.8667 45.234 24.0592C45.5392 24.6835 45.9523 25.2375 46.4733 25.7163C46.9944 26.1999 47.5859 26.5754 48.2478 26.843C48.9097 27.1106 49.6092 27.242 50.3462 27.242C51.5667 27.242 52.792 26.9932 54.0266 26.5003C55.2612 26.0027 56.308 25.2234 57.1718 24.1531C57.1718 26.2139 57.9839 27.242 59.6129 27.242C60.1199 27.242 60.5283 27.2045 60.8334 27.1293C60.8334 27.1293 60.8381 27.1293 60.8428 27.1293C61.0118 27.0871 61.1667 27.0073 61.2981 26.904H62.068C62.8708 26.904 63.5233 26.2515 63.5233 25.4487V14.5764C63.5233 13.7736 63.8002 12.9991 64.3072 12.3747C64.7016 11.8912 65.1569 11.4734 65.678 11.1166C66.1991 10.7598 66.7624 10.4734 67.3727 10.2575C67.9829 10.0416 68.565 9.93358 69.1283 9.93358C69.457 9.93358 69.8137 10.0181 70.194 10.1824C70.5742 10.3467 70.9169 10.572 71.222 10.849C71.5272 11.1307 71.7807 11.4734 71.9825 11.8771C72.1844 12.2855 72.2877 12.7174 72.2877 13.1728V26.8993H73.541C74.3438 26.8993 74.9963 26.2468 74.9963 25.444V12.4874C74.9963 11.0368 74.4987 9.86317 73.5082 8.96183C72.5177 8.0605 71.1563 7.60983 69.4288 7.60983L69.4241 7.60514ZM43.3845 20.36C43.1544 21.2613 42.8258 22.0547 42.3939 22.7447C41.9621 23.4301 41.4363 23.97 40.8119 24.3643C40.1876 24.7587 39.4694 24.9558 38.6572 24.9558C37.8451 24.9558 37.1269 24.7587 36.5025 24.3643C35.8782 23.97 35.3524 23.4301 34.9205 22.7447C34.4886 22.0593 34.16 21.266 33.93 20.36C33.7 19.4586 33.5873 18.4963 33.5873 17.4823C33.5873 16.4683 33.7 15.5012 33.93 14.5858C34.16 13.6704 34.4886 12.8629 34.9205 12.1634C35.3524 11.464 35.8782 10.9053 36.5025 10.4875C37.1269 10.0697 37.8451 9.85847 38.6572 9.85847C39.4694 9.85847 40.1876 10.0697 40.8119 10.4875C41.4363 10.9053 41.9621 11.4687 42.3939 12.1634C42.8258 12.8629 43.1544 13.6704 43.3845 14.5858C43.6145 15.5012 43.7271 16.4683 43.7271 17.4823C43.7271 18.4963 43.6145 19.4586 43.3845 20.36ZM56.8995 20.3459C56.8995 21.2895 56.5756 22.219 55.9419 22.9184L55.9278 22.9325C55.51 23.3879 55.0312 23.7728 54.496 24.078C53.9609 24.3831 53.4022 24.6131 52.8201 24.7633C52.2333 24.9136 51.6888 24.9934 51.1818 24.9934C50.2148 24.9934 49.3745 24.7258 48.6656 24.1906C47.9521 23.6555 47.6 22.909 47.6 21.942C47.6 21.05 47.9568 20.3271 48.6656 19.7685C49.3792 19.2098 50.2288 18.7451 51.2193 18.3789C52.2099 18.0127 53.2332 17.6935 54.2895 17.4259C54.2988 17.4259 54.3082 17.4212 54.3223 17.4165C55.632 17.0832 56.9042 18.0597 56.9042 19.4117V20.3459H56.8995ZM56.0029 14.5435C55.4067 14.797 54.6556 15.0458 53.7543 15.2853C52.853 15.5294 51.8813 15.7923 50.8391 16.088C49.797 16.3791 48.8252 16.7734 47.9239 17.271C47.3559 17.5808 46.8536 17.9517 46.4076 18.3648C46.4264 18.0738 46.4358 17.778 46.4358 17.4823C46.4358 16.2101 46.2762 14.9801 45.957 13.783C45.9382 13.7032 45.91 13.6328 45.8865 13.553H46.9803C47.6141 13.553 48.1633 13.1399 48.3652 12.539C48.4168 12.3747 48.4872 12.2198 48.567 12.0649C48.8064 11.6095 49.1257 11.2152 49.52 10.8819C49.9143 10.5533 50.3697 10.2904 50.8907 10.0979C51.4118 9.90542 51.9517 9.81153 52.5103 9.81153C53.2708 9.81153 53.928 9.91481 54.4725 10.1167C55.0171 10.3185 55.4677 10.5955 55.8245 10.9382C56.1813 11.2809 56.4489 11.6799 56.6273 12.14C56.8056 12.5953 56.8948 13.0695 56.8948 13.553C56.8948 13.9614 56.5944 14.29 55.9982 14.5435H56.0029Z" fill="black"/>
<path d="M15.2802 44.2673C14.5515 43.6241 13.7222 43.0882 12.7875 42.6594C11.8527 42.2307 10.8796 41.9045 9.86815 41.6761C9.26895 41.527 8.64098 41.3312 7.97945 41.0889C7.31793 40.8512 6.71393 40.5297 6.16745 40.1242C5.62098 39.7188 5.17516 39.2434 4.82523 38.6842C4.47529 38.1296 4.29792 37.4725 4.29792 36.7175C4.29792 36.135 4.43215 35.6083 4.70539 35.1283C4.97862 34.6483 5.33335 34.2382 5.77437 33.898C6.21538 33.5578 6.71393 33.2968 7.27478 33.1197C7.83085 32.9426 8.41088 32.8541 9.00529 32.8541C9.65244 32.8541 10.2708 32.9846 10.8556 33.2502C11.4405 33.5158 11.9582 33.8747 12.4136 34.3267C12.869 34.7788 13.2333 35.324 13.5017 35.9532C13.775 36.5823 13.9092 37.2674 13.9092 37.9991H16.4594C16.7518 37.9991 16.9867 37.7614 16.9676 37.4771C16.9244 36.8806 16.8046 36.2375 16.6176 35.5384C16.3683 34.6297 15.9513 33.7768 15.3521 32.9846C14.7529 32.1876 13.9428 31.5212 12.9169 30.9806C11.8911 30.44 10.5872 30.165 9.00529 30.165C8.0178 30.165 7.05907 30.3282 6.1243 30.659C5.18954 30.9853 4.36024 31.4466 3.6316 32.0385C2.90297 32.6304 2.32294 33.3341 1.88192 34.1403C1.44091 34.9466 1.2204 35.818 1.2204 36.7501C1.2204 37.7847 1.42653 38.7261 1.84357 39.5696C2.26062 40.4132 2.79751 41.1448 3.45903 41.7647C4.12056 42.3845 4.87795 42.9018 5.73602 43.3166C6.59408 43.7313 7.47612 44.0436 8.38212 44.244C9.02926 44.3978 9.71955 44.5982 10.4434 44.8498C11.172 45.1015 11.8383 45.437 12.4471 45.8518C13.0559 46.2666 13.5641 46.7745 13.9667 47.3664C14.3694 47.9583 14.5707 48.662 14.5707 49.4682C14.5707 50.1999 14.4269 50.829 14.1441 51.3603C13.8565 51.8916 13.4778 52.339 12.9936 52.7025C12.5142 53.0707 11.9486 53.341 11.3015 53.5181C10.6543 53.6952 9.9784 53.7837 9.27853 53.7837C8.44923 53.7837 7.68704 53.6113 7.00154 53.2711C6.31126 52.9309 5.72164 52.4835 5.22789 51.9289C4.73415 51.3743 4.36024 50.7312 4.09659 49.9995C3.83773 49.2678 3.7083 48.5222 3.7083 47.7672H2.22227C1.2923 47.7672 0.578052 48.5874 0.760211 49.4729C0.880052 50.0601 1.06221 50.6286 1.31148 51.1739C1.79084 52.2318 2.4332 53.1546 3.23853 53.9375C4.04386 54.7204 4.96904 55.3403 6.02364 55.7923C7.07345 56.2444 8.15682 56.4727 9.27374 56.4727C10.4674 56.4727 11.5747 56.3143 12.6005 55.9974C13.6264 55.6805 14.5132 55.2284 15.2658 54.6366C16.0184 54.0447 16.6032 53.313 17.0203 52.4415C17.4373 51.57 17.6435 50.5681 17.6435 49.4309C17.6435 48.2938 17.4277 47.3757 17.0011 46.5182C16.5745 45.6607 15.9944 44.9104 15.2706 44.2673H15.2802Z" fill="black"/>
<path d="M61.3335 29.4343C60.5413 29.4343 59.8973 30.0684 59.8973 30.8484V35.5514C59.8973 36.596 58.7437 37.2119 57.8357 36.6782C57.8264 36.6736 57.8172 36.669 57.8079 36.6645C56.9184 36.1444 55.9223 35.8844 54.815 35.8844C53.5086 35.8844 52.3828 36.1581 51.4284 36.701C50.474 37.2438 49.6772 37.96 49.0378 38.8495C48.5606 39.5109 48.1761 40.2499 47.8796 41.0619C47.5553 40.2499 47.143 39.5109 46.638 38.8495C45.9616 37.96 45.1184 37.2438 44.1177 36.701C43.1124 36.1581 41.9588 35.8844 40.6569 35.8844C39.3551 35.8844 38.1969 36.1581 37.1962 36.701C36.1908 37.2438 35.3523 37.96 34.6759 38.8495C34.3886 39.2235 34.1385 39.6295 33.9115 40.0537C33.6844 39.6295 33.4343 39.2235 33.147 38.8495C32.4706 37.96 31.6274 37.2438 30.6267 36.701C29.6214 36.1581 28.4678 35.8844 27.166 35.8844C25.8641 35.8844 24.7059 36.1581 23.7052 36.701C22.6999 37.2438 21.8613 37.96 21.1849 38.8495C20.5085 39.739 19.9943 40.7654 19.6422 41.924C19.2901 43.0872 19.114 44.2824 19.114 45.5185C19.114 46.7547 19.2901 47.9408 19.6422 49.0766C19.9943 50.2124 20.5085 51.2206 21.1849 52.0964C21.8613 52.9722 22.7045 53.6793 23.7052 54.2084C24.7105 54.7376 25.8641 55.0067 27.166 55.0067C28.1435 55.0067 29.0469 54.8516 29.8762 54.5414C30.7055 54.2312 31.4375 53.807 32.0768 53.2642C32.7162 52.7213 33.2629 52.0781 33.7122 51.3392C33.791 51.2114 33.8605 51.0791 33.93 50.9514C34.1524 51.3528 34.3979 51.7406 34.6759 52.1009C35.3523 52.9768 36.1955 53.6838 37.1962 54.213C38.1969 54.7421 39.3551 55.0112 40.6569 55.0112C41.6345 55.0112 42.5379 54.8562 43.3672 54.546C44.1965 54.2358 44.9285 53.8115 45.5678 53.2687C46.2071 52.7259 46.7538 52.0827 47.2032 51.3437C47.4719 50.9058 47.6989 50.4451 47.8935 49.9616C48.1854 50.7461 48.5653 51.4578 49.0378 52.1009C49.6772 52.9768 50.474 53.6838 51.4284 54.213C52.3828 54.7421 53.5086 55.0112 54.815 55.0112C55.9177 55.0112 56.9137 54.7649 57.8079 54.2723C58.0071 54.1628 58.2017 54.0396 58.3824 53.9165C59.0217 53.474 59.8973 53.9165 59.8973 54.6783H62.0053C62.274 54.6783 62.4964 54.4639 62.4964 54.1947V29.4343H61.3335ZM22.5933 41.55C22.9083 40.8611 23.2882 40.259 23.7423 39.7527C24.1917 39.2463 24.7059 38.8449 25.285 38.5484C25.8641 38.2519 26.4896 38.1059 27.166 38.1059C27.8424 38.1059 28.4678 38.2519 29.0469 38.5484C29.626 38.8449 30.131 39.2463 30.5711 39.7527C31.0113 40.259 31.3819 40.8566 31.683 41.55C31.683 41.5591 31.6877 41.5636 31.6923 41.5728C32.1463 42.6174 31.3402 43.776 30.1866 43.776H21.9401C22.0652 42.9869 22.2829 42.2433 22.5979 41.5545L22.5933 41.55ZM32.3919 48.9215C32.1973 48.9215 32.0166 49.0355 31.9425 49.2134C31.5209 50.2398 30.9186 51.0746 30.1357 51.7178C29.2832 52.4203 28.2918 52.7715 27.1613 52.7715C26.383 52.7715 25.6742 52.5936 25.0348 52.2332C24.3955 51.8774 23.8442 51.3939 23.3809 50.7872C22.9176 50.1805 22.547 49.4643 22.269 48.6387C22.1995 48.4289 22.1347 48.2145 22.0791 48.0001C21.8196 46.9828 22.584 45.993 23.6496 45.993H32.6142C32.6513 47.0011 32.8042 47.9773 33.0822 48.9215H32.3826H32.3919ZM36.0889 41.55C36.4039 40.8611 36.7838 40.259 37.2379 39.7527C37.6873 39.2463 38.2015 38.8449 38.7806 38.5484C39.3597 38.2519 39.9852 38.1059 40.6616 38.1059C41.338 38.1059 41.9681 38.2519 42.5425 38.5484C43.1216 38.8449 43.6266 39.2463 44.0667 39.7527C44.5069 40.259 44.8775 40.8566 45.1786 41.55C45.1786 41.5591 45.1833 41.5636 45.1879 41.5728C45.6419 42.6174 44.8358 43.776 43.6822 43.776H35.4357C35.5608 42.9869 35.7785 42.2433 36.0935 41.5545L36.0889 41.55ZM45.8875 48.9215C45.6929 48.9215 45.5122 49.0355 45.4381 49.2134C45.0165 50.2398 44.4142 51.0746 43.6312 51.7178C42.7788 52.4203 41.7874 52.7715 40.6569 52.7715C39.8786 52.7715 39.1698 52.5936 38.5304 52.2332C37.8911 51.8774 37.3398 51.3939 36.8765 50.7872C36.4132 50.1805 36.0426 49.4643 35.7646 48.6387C35.6951 48.4289 35.6303 48.2145 35.5747 48.0001C35.3152 46.9828 36.0796 45.993 37.1452 45.993H47.1476C47.1801 47.0011 47.319 47.9773 47.5692 48.9215H45.8782H45.8875ZM59.485 48.3103C59.258 49.1861 58.9337 49.957 58.5075 50.6275C58.0812 51.2935 57.5624 51.8181 56.9462 52.2013C56.33 52.5845 55.6212 52.7761 54.8197 52.7761C54.0182 52.7761 53.3094 52.5845 52.6932 52.2013C52.077 51.8181 51.5581 51.2935 51.1319 50.6275C50.7057 49.9616 50.3814 49.1906 50.1544 48.3103C49.9274 47.4344 49.8162 46.4993 49.8162 45.514C49.8162 44.5287 49.9274 43.589 50.1544 42.6995C50.3814 41.81 50.7057 41.0254 51.1319 40.3457C51.5581 39.666 52.077 39.1232 52.6932 38.7172C53.3094 38.3112 54.0182 38.1059 54.8197 38.1059C55.6212 38.1059 56.33 38.3112 56.9462 38.7172C57.5624 39.1232 58.0812 39.6706 58.5075 40.3457C58.9337 41.0254 59.258 41.81 59.485 42.6995C59.712 43.589 59.8232 44.5287 59.8232 45.514C59.8232 46.4993 59.712 47.4344 59.485 48.3103Z" fill="black"/>
</g>
<defs>
<clipPath id="clip0_196_69">
<rect width="75" height="57" fill="white"/>
</clipPath>
</defs>
</svg>
